<svg width="24" height="25" viewBox="0 0 24 25" fill="none" xmlns="http://www.w3.org/2000/svg">
<path fill-rule="evenodd" clip-rule="evenodd" d="M4.93486 6.44251C5.04074 6.30415 5.20633 6.22314 5.38092 6.22314H21.1505C21.3251 6.22314 21.4907 6.30415 21.5966 6.44251C21.7036 6.582 21.7397 6.76197 21.6946 6.93071L19.4418 15.3675C19.3765 15.6139 19.1534 15.7848 18.8977 15.7848H7.63373C7.37803 15.7848 7.155 15.6139 7.08967 15.3675L4.83687 6.93071C4.79181 6.76197 4.82785 6.582 4.93486 6.44251ZM6.11421 7.34805L8.06627 14.6599H18.4652L20.4173 7.34805H6.11421Z" fill="#1A1A1E"/>
<path fill-rule="evenodd" clip-rule="evenodd" d="M2 3.97314H4.816C5.07395 3.97314 5.29923 4.14863 5.36231 4.39948L5.92551 6.64929L4.8329 6.92153L4.37671 5.09805H2V3.97314Z" fill="#1A1A1E"/>
<path fill-rule="evenodd" clip-rule="evenodd" d="M8.19677 18.5985C7.575 18.5985 7.07037 19.1025 7.07037 19.7234C7.07037 20.3444 7.575 20.8484 8.19677 20.8484C8.81855 20.8484 9.32318 20.3444 9.32318 19.7234C9.32318 19.1025 8.81855 18.5985 8.19677 18.5985ZM5.94397 19.7234C5.94397 18.4804 6.9521 17.4736 8.19677 17.4736C9.44145 17.4736 10.4496 18.4804 10.4496 19.7234C10.4496 20.9665 9.44145 21.9733 8.19677 21.9733C6.9521 21.9733 5.94397 20.9665 5.94397 19.7234Z" fill="#1A1A1E"/>
<path fill-rule="evenodd" clip-rule="evenodd" d="M18.3346 18.5985C17.7128 18.5985 17.2082 19.1025 17.2082 19.7234C17.2082 20.3444 17.7128 20.8484 18.3346 20.8484C18.9564 20.8484 19.461 20.3444 19.461 19.7234C19.461 19.1025 18.9564 18.5985 18.3346 18.5985ZM16.0818 19.7234C16.0818 18.4804 17.0899 17.4736 18.3346 17.4736C19.5793 17.4736 20.5874 18.4804 20.5874 19.7234C20.5874 20.9665 19.5793 21.9733 18.3346 21.9733C17.0899 21.9733 16.0818 20.9665 16.0818 19.7234Z" fill="#1A1A1E"/>
</svg>
