<svg width="24" height="25" viewBox="0 0 24 25" fill="none" xmlns="http://www.w3.org/2000/svg">
<path fill-rule="evenodd" clip-rule="evenodd" d="M7.17457 5.89337C5.90694 7.06936 5.09846 8.81798 5.09846 11.1217C5.09846 12.7079 6.01679 14.6628 7.28771 16.5793C8.54435 18.4716 10.08 20.2334 11.1839 21.4127C11.7639 22.0314 12.713 22.0314 13.293 21.4127C14.3969 20.2334 15.9326 18.4716 17.1892 16.5793C18.4601 14.6628 19.3785 12.7079 19.3785 11.1217C19.3785 8.81798 18.57 7.06936 17.3023 5.89337C16.027 4.71299 14.2464 4.07015 12.2385 4.07015C10.2305 4.07015 8.44988 4.71299 7.17457 5.89337ZM6.42759 5.09036C7.93578 3.69168 9.99979 2.97314 12.2385 2.97314C14.4771 2.97314 16.5411 3.69168 18.0493 5.09036C19.5641 6.49452 20.4769 8.54592 20.4769 11.1217C20.4769 13.0546 19.3927 15.2442 18.1042 17.1848C16.8004 19.1495 15.2197 20.9618 14.0949 22.1619C13.081 23.2436 11.3959 23.2436 10.3821 22.1619C9.25723 20.9618 7.67655 19.1495 6.37268 17.1848C5.08419 15.2442 4 13.0546 4 11.1217C4 8.54592 4.91281 6.49452 6.42759 5.09036Z" fill="#1A1A1E"/>
<path fill-rule="evenodd" clip-rule="evenodd" d="M12.2389 7.36067C10.7219 7.36067 9.49274 8.58822 9.49274 10.1032C9.49274 11.6181 10.7219 12.8457 12.2389 12.8457C13.7559 12.8457 14.985 11.6181 14.985 10.1032C14.985 8.58822 13.7559 7.36067 12.2389 7.36067ZM8.39428 10.1032C8.39428 7.98268 10.1156 6.26367 12.2389 6.26367C14.3622 6.26367 16.0835 7.98268 16.0835 10.1032C16.0835 12.2237 14.3622 13.9427 12.2389 13.9427C10.1156 13.9427 8.39428 12.2237 8.39428 10.1032Z" fill="#1A1A1E"/>
</svg>
