<svg width="20" height="20" viewBox="0 0 20 20" fill="none" xmlns="http://www.w3.org/2000/svg">
<path fill-rule="evenodd" clip-rule="evenodd" d="M7.97326 3.33978C4.95443 3.33978 2.50741 5.78356 2.50741 8.79838C2.50741 11.8132 4.95443 14.257 7.97326 14.257C10.9921 14.257 13.4391 11.8132 13.4391 8.79838C13.4391 5.78356 10.9921 3.33978 7.97326 3.33978ZM1.6665 8.79838C1.6665 5.32 4.49025 2.5 7.97326 2.5C11.4563 2.5 14.28 5.32 14.28 8.79838C14.28 12.2768 11.4563 15.0968 7.97326 15.0968C4.49025 15.0968 1.6665 12.2768 1.6665 8.79838Z" fill="#474747"/>
<path fill-rule="evenodd" clip-rule="evenodd" d="M12.4762 12.7L17.5216 17.7387L16.9263 18.3333L11.8809 13.2946L12.4762 12.7Z" fill="#474747"/>
</svg>
